<?xml version="1.0" encoding="utf-8"?>
<!-- Generator: Adobe Illustrator 16.0.0, SVG Export Plug-In . SVG Version: 6.00 Build 0)  -->
<!DOCTYPE svg PUBLIC "-//W3C//DTD SVG 1.1//EN" "http://www.w3.org/Graphics/SVG/1.1/DTD/svg11.dtd">
<svg version="1.1" id="Layer_1" xmlns="http://www.w3.org/2000/svg" xmlns:xlink="http://www.w3.org/1999/xlink" x="0px" y="0px"
	 width="598px" height="322.667px" viewBox="0 0 598 322.667" enable-background="new 0 0 598 322.667" xml:space="preserve">
<rect x="-30.531" y="17.548" fill="none" width="652.505" height="394.12"/>
<g enable-background="new    ">
	<path fill="#FFFFFF" d="M46.777,52.219c0-4.224-0.176-8.976-1.408-12.671c-1.232-3.521-3.168-5.984-6.16-5.984
		c-4.928,0.176-6.512,5.28-6.512,12.848c0,4.4,1.936,8.976,4.752,13.903s6.512,10.032,10.208,15.488
		c4.4,6.512,8.8,13.199,12.144,19.711s5.632,13.2,5.632,20.239c0,8.624-1.408,16.72-5.456,22.704
		c-4.048,5.983-10.56,9.855-20.943,9.855c-12.144,0-19.008-4.576-22.879-11.616c-3.872-7.039-4.752-16.367-4.752-26.047l18.655-1.76
		c0,5.456,0.176,10.911,1.584,14.959c1.232,4.225,3.344,7.04,7.392,7.04c5.632,0,7.744-5.983,7.744-14.256
		c0-4.224-2.112-9.151-4.928-14.255c-1.584-2.464-3.168-5.104-4.928-7.744c-3.696-5.28-7.744-11.264-11.967-17.775
		c-4.224-6.512-7.392-13.199-9.328-20.063c-1.056-3.344-1.584-6.864-1.584-10.384c0-7.04,1.584-14.607,5.632-20.415
		c4.048-5.632,10.208-9.68,19.184-9.856c11.44-0.176,18.127,4.576,21.823,11.44c3.696,7.039,4.752,15.663,4.752,22.879
		L46.777,52.219z"/>
	<path fill="#FFFFFF" d="M70.36,146.905L89.896,17.548h23.231l19.535,129.356h-18.479l-3.52-26.399H92.359l-3.52,26.399H70.36z
		 M102.567,59.612l-0.528-3.345h-1.056l-0.528,3.345L95,100.442h13.023L102.567,59.612z"/>
	<path fill="#FFFFFF" d="M171.207,52.219c0-4.224-0.176-8.976-1.408-12.671c-1.232-3.521-3.168-5.984-6.16-5.984
		c-4.928,0.176-6.512,5.28-6.512,12.848c0,4.4,1.936,8.976,4.752,13.903s6.512,10.032,10.208,15.488
		c4.4,6.512,8.8,13.199,12.144,19.711s5.632,13.2,5.632,20.239c0,8.624-1.408,16.72-5.456,22.704
		c-4.048,5.983-10.56,9.855-20.943,9.855c-12.144,0-19.008-4.576-22.879-11.616c-3.872-7.039-4.752-16.367-4.752-26.047l18.655-1.76
		c0,5.456,0.176,10.911,1.584,14.959c1.232,4.225,3.344,7.04,7.392,7.04c5.632,0,7.744-5.983,7.744-14.256
		c0-4.224-2.112-9.151-4.928-14.255c-1.584-2.464-3.168-5.104-4.928-7.744c-3.696-5.28-7.744-11.264-11.967-17.775
		c-4.224-6.512-7.392-13.199-9.328-20.063c-1.056-3.344-1.584-6.864-1.584-10.384c0-7.04,1.584-14.607,5.632-20.415
		c4.048-5.632,10.208-9.68,19.184-9.856c11.44-0.176,18.127,4.576,21.823,11.44c3.696,7.039,4.752,15.663,4.752,22.879
		L171.207,52.219z"/>
	<path fill="#FFFFFF" d="M231.572,52.219c0-4.224-0.176-8.976-1.408-12.671c-1.232-3.521-3.168-5.984-6.16-5.984
		c-4.928,0.176-6.512,5.28-6.512,12.848c0,4.4,1.936,8.976,4.752,13.903s6.512,10.032,10.208,15.488
		c4.4,6.512,8.8,13.199,12.144,19.711s5.632,13.2,5.632,20.239c0,8.624-1.408,16.72-5.456,22.704
		c-4.048,5.983-10.56,9.855-20.943,9.855c-12.144,0-19.008-4.576-22.879-11.616c-3.872-7.039-4.752-16.367-4.752-26.047l18.655-1.76
		c0,5.456,0.176,10.911,1.584,14.959c1.232,4.225,3.344,7.04,7.392,7.04c5.632,0,7.744-5.983,7.744-14.256
		c0-4.224-2.112-9.151-4.928-14.255c-1.584-2.464-3.168-5.104-4.928-7.744c-3.696-5.28-7.744-11.264-11.967-17.775
		c-4.224-6.512-7.392-13.199-9.328-20.063c-1.056-3.344-1.584-6.864-1.584-10.384c0-7.04,1.584-14.607,5.632-20.415
		c4.048-5.632,10.208-9.68,19.184-9.856c11.44-0.176,18.127,4.576,21.823,11.44c3.696,7.039,4.752,15.663,4.752,22.879
		L231.572,52.219z"/>
	<path fill="#FFFFFF" d="M336.992,102.554v17.775c-0.176,5.28-1.231,10.031-3.168,14.079c-1.584,3.521-4.048,6.864-7.567,9.504
		c-3.521,2.816-8.272,4.4-14.608,4.4c-6.335,0-11.264-1.584-14.783-4.4c-3.52-2.64-5.808-5.983-7.392-9.504
		c-1.936-4.048-2.992-8.799-3.168-14.079V44.124c0.176-5.104,1.232-9.855,3.168-13.903c1.584-3.52,3.872-7.04,7.392-9.68
		c3.519-2.64,8.448-4.4,14.783-4.4c6.336,0,11.088,1.761,14.608,4.4c3.52,2.64,5.983,6.16,7.567,9.68
		c1.937,4.048,2.992,8.8,3.168,13.903v17.775h-17.775V44.124c0-3.52-0.88-5.983-2.816-8.096c-0.879-0.88-2.463-1.408-4.399-1.408
		c-3.344,0-4.928,2.465-5.808,4.752c-0.527,1.408-0.704,2.992-0.88,4.752v76.206c0.176,3.696,1.231,6.16,2.991,8.096
		c0.881,0.88,2.112,1.408,3.696,1.408c4.048,0,5.632-2.112,6.512-4.752c0.528-1.232,0.704-2.816,0.704-4.752v-17.775H336.992z"/>
	<path fill="#FFFFFF" d="M397.887,120.33c-0.176,5.28-1.231,10.031-3.168,14.079c-1.584,3.521-4.048,6.864-7.567,9.504
		c-3.521,2.816-8.271,4.4-14.607,4.4s-11.264-1.584-14.784-4.4c-3.52-2.64-5.808-5.983-7.392-9.504
		c-1.936-4.048-2.992-8.799-3.168-14.079V44.124c0.176-5.104,1.232-9.855,3.168-13.903c1.584-3.52,3.872-7.04,7.392-9.68
		c3.521-2.64,8.448-4.4,14.784-4.4s11.087,1.761,14.607,4.4c3.52,2.64,5.983,6.16,7.567,9.68c1.937,4.048,2.992,8.8,3.168,13.903
		V120.33z M378.88,44.124c0-3.52-0.704-5.983-2.464-8.096c-0.881-0.88-2.288-1.408-3.872-1.408c-3.344,0-4.928,2.465-5.632,4.752
		c-0.528,1.408-0.704,2.992-0.704,4.752v76.206c0,3.696,0.88,6.16,2.64,8.096c0.88,0.88,2.112,1.408,3.696,1.408
		c3.344,0,4.928-2.112,5.632-4.752c0.527-1.232,0.704-2.816,0.704-4.752V44.124z"/>
	<path fill="#FFFFFF" d="M410.734,17.548h19.007v111.757h25.168v17.6h-44.175V17.548z"/>
	<path fill="#FFFFFF" d="M512.108,120.33c-0.176,5.28-1.231,10.031-3.168,14.079c-1.584,3.521-4.048,6.864-7.567,9.504
		c-3.52,2.816-8.271,4.4-14.607,4.4s-11.264-1.584-14.784-4.4c-3.52-2.64-5.808-5.983-7.392-9.504
		c-1.936-4.048-2.992-8.799-3.168-14.079V44.124c0.176-5.104,1.232-9.855,3.168-13.903c1.584-3.52,3.872-7.04,7.392-9.68
		c3.521-2.64,8.448-4.4,14.784-4.4s11.088,1.761,14.607,4.4s5.983,6.16,7.567,9.68c1.937,4.048,2.992,8.8,3.168,13.903V120.33z
		 M493.102,44.124c0-3.52-0.704-5.983-2.464-8.096c-0.881-0.88-2.288-1.408-3.872-1.408c-3.344,0-4.928,2.465-5.632,4.752
		c-0.528,1.408-0.704,2.992-0.704,4.752v76.206c0,3.696,0.88,6.16,2.64,8.096c0.88,0.88,2.112,1.408,3.696,1.408
		c3.344,0,4.928-2.112,5.632-4.752c0.527-1.232,0.704-2.816,0.704-4.752V44.124z"/>
	<path fill="#FFFFFF" d="M558.923,146.905l-9.855-54.559h-5.104v54.559h-19.007V17.548h19.007c22.704,0,32.384,12.848,32.384,37.312
		c0,12.848-3.345,24.463-10.56,29.391l12.144,62.654H558.923z M543.963,74.747c2.641,0,6.16-0.352,8.977-2.815
		c2.815-2.464,5.104-7.216,5.104-16.368c0-9.151-2.288-14.079-5.104-16.543c-2.816-2.464-6.336-2.64-8.977-2.64V74.747z"/>
</g>
<g enable-background="new    ">
	<path fill="#FFFFFF" d="M79.687,260.554v17.775c-0.176,5.28-1.232,10.031-3.167,14.079c-1.584,3.521-4.048,6.864-7.568,9.504
		c-3.52,2.816-8.272,4.4-14.608,4.4c-6.335,0-11.264-1.584-14.783-4.4c-3.52-2.64-5.808-5.983-7.392-9.504
		c-1.936-4.048-2.992-8.799-3.168-14.079v-76.206c0.176-5.104,1.232-9.855,3.168-13.903c1.584-3.52,3.872-7.04,7.392-9.68
		c3.52-2.64,8.448-4.4,14.783-4.4c6.336,0,11.088,1.761,14.608,4.4c3.52,2.64,5.984,6.16,7.568,9.68
		c1.936,4.048,2.992,8.8,3.167,13.903v17.775H61.911v-17.775c0-3.52-0.88-5.983-2.816-8.096c-0.88-0.88-2.464-1.408-4.4-1.408
		c-3.344,0-4.928,2.465-5.808,4.752c-0.528,1.408-0.704,2.992-0.88,4.752v76.206c0.176,3.696,1.232,6.16,2.992,8.096
		c0.88,0.88,2.112,1.408,3.696,1.408c4.048,0,5.632-2.112,6.512-4.752c0.528-1.232,0.704-2.816,0.704-4.752v-17.775H79.687z"/>
	<path fill="#FFFFFF" d="M140.581,278.33c-0.176,5.28-1.232,10.031-3.167,14.079c-1.584,3.521-4.048,6.864-7.568,9.504
		c-3.52,2.816-8.272,4.4-14.608,4.4c-6.335,0-11.264-1.584-14.783-4.4c-3.52-2.64-5.808-5.983-7.392-9.504
		c-1.936-4.048-2.992-8.799-3.168-14.079v-76.206c0.176-5.104,1.232-9.855,3.168-13.903c1.584-3.52,3.872-7.04,7.392-9.68
		c3.52-2.64,8.448-4.4,14.783-4.4c6.336,0,11.088,1.761,14.608,4.4c3.52,2.64,5.984,6.16,7.568,9.68
		c1.936,4.048,2.992,8.8,3.167,13.903V278.33z M121.574,202.124c0-3.52-0.704-5.983-2.464-8.096c-0.88-0.88-2.288-1.408-3.872-1.408
		c-3.344,0-4.928,2.465-5.632,4.752c-0.528,1.408-0.704,2.992-0.704,4.752v76.206c0,3.696,0.88,6.16,2.64,8.096
		c0.88,0.88,2.112,1.408,3.696,1.408c3.344,0,4.928-2.112,5.632-4.752c0.528-1.232,0.704-2.816,0.704-4.752V202.124z"/>
	<path fill="#FFFFFF" d="M173.492,237.499l-1.584-5.983h-1.056v73.39h-17.424V175.548h16.896l18.479,67.406l1.584,5.983h1.056
		v-73.39h17.423v129.356h-16.896L173.492,237.499z"/>
	<path fill="#FFFFFF" d="M257.442,175.548h18.479L256.21,304.905h-19.007l-19.711-129.356h18.479l9.504,71.103l0.704,5.455h1.056
		l0.704-5.455L257.442,175.548z"/>
	<path fill="#FFFFFF" d="M284.546,175.548h43.471v19.536h-24.464v33.967h17.6v20.768h-17.6v35.551h24.464v19.535h-43.471V175.548z"
		/>
	<path fill="#FFFFFF" d="M372.543,304.905l-9.855-54.559h-5.104v54.559h-19.007V175.548h19.007
		c22.704,0,32.384,12.848,32.384,37.312c0,12.848-3.345,24.463-10.56,29.391l12.144,62.654H372.543z M357.583,232.747
		c2.641,0,6.16-0.352,8.977-2.815c2.815-2.464,5.104-7.216,5.104-16.368c0-9.151-2.288-14.079-5.104-16.543
		c-2.816-2.464-6.336-2.64-8.977-2.64V232.747z"/>
	<path fill="#FFFFFF" d="M395.423,195.084v-19.536h54.911v19.536h-17.952v109.82h-19.007v-109.82H395.423z"/>
	<path fill="#FFFFFF" d="M457.726,175.548h43.471v19.536h-24.464v33.967h17.6v20.768h-17.6v35.551h24.464v19.535h-43.471V175.548z"
		/>
	<path fill="#FFFFFF" d="M545.723,304.905l-9.855-54.559h-5.104v54.559h-19.007V175.548h19.007
		c22.704,0,32.384,12.848,32.384,37.312c0,12.848-3.345,24.463-10.56,29.391l12.144,62.654H545.723z M530.763,232.747
		c2.641,0,6.16-0.352,8.977-2.815c2.815-2.464,5.104-7.216,5.104-16.368c0-9.151-2.288-14.079-5.104-16.543
		c-2.816-2.464-6.336-2.64-8.977-2.64V232.747z"/>
</g>
<rect x="-35.667" y="14" fill="none" width="652.506" height="394.119"/>
<g enable-background="new    ">
	<path fill="#BCB7B3" d="M41.641,48.671c0-4.224-0.176-8.976-1.408-12.671c-1.232-3.521-3.168-5.984-6.16-5.984
		c-4.928,0.176-6.512,5.28-6.512,12.848c0,4.4,1.936,8.976,4.752,13.903s6.512,10.032,10.208,15.488
		c4.4,6.512,8.8,13.199,12.144,19.711s5.632,13.2,5.632,20.239c0,8.624-1.408,16.72-5.456,22.704
		c-4.048,5.983-10.56,9.855-20.943,9.855c-12.144,0-19.008-4.576-22.879-11.616c-3.872-7.039-4.752-16.367-4.752-26.047l18.655-1.76
		c0,5.456,0.176,10.911,1.584,14.959c1.232,4.225,3.344,7.04,7.392,7.04c5.632,0,7.744-5.983,7.744-14.256
		c0-4.224-2.112-9.151-4.928-14.255c-1.584-2.464-3.168-5.104-4.928-7.744c-3.696-5.28-7.744-11.264-11.967-17.775
		c-4.224-6.512-7.392-13.199-9.328-20.063c-1.056-3.344-1.584-6.864-1.584-10.384c0-7.04,1.584-14.607,5.632-20.415
		c4.048-5.632,10.208-9.68,19.184-9.856c11.44-0.176,18.127,4.576,21.823,11.44c3.696,7.039,4.752,15.663,4.752,22.879
		L41.641,48.671z"/>
	<path fill="#BCB7B3" d="M65.223,143.357L84.759,14h23.231l19.535,129.356h-18.479l-3.52-26.399H87.223l-3.52,26.399H65.223z
		 M97.43,56.064l-0.528-3.345h-1.056l-0.528,3.345l-5.456,40.83h13.023L97.43,56.064z"/>
	<path fill="#BCB7B3" d="M166.07,48.671c0-4.224-0.176-8.976-1.408-12.671c-1.232-3.521-3.168-5.984-6.16-5.984
		c-4.928,0.176-6.512,5.28-6.512,12.848c0,4.4,1.936,8.976,4.752,13.903s6.512,10.032,10.208,15.488
		c4.4,6.512,8.8,13.199,12.144,19.711s5.632,13.2,5.632,20.239c0,8.624-1.408,16.72-5.456,22.704
		c-4.048,5.983-10.56,9.855-20.943,9.855c-12.144,0-19.008-4.576-22.879-11.616c-3.872-7.039-4.752-16.367-4.752-26.047l18.655-1.76
		c0,5.456,0.176,10.911,1.584,14.959c1.232,4.225,3.344,7.04,7.392,7.04c5.632,0,7.744-5.983,7.744-14.256
		c0-4.224-2.112-9.151-4.928-14.255c-1.584-2.464-3.168-5.104-4.928-7.744c-3.696-5.28-7.744-11.264-11.967-17.775
		c-4.224-6.512-7.392-13.199-9.328-20.063c-1.056-3.344-1.584-6.864-1.584-10.384c0-7.04,1.584-14.607,5.632-20.415
		c4.048-5.632,10.208-9.68,19.184-9.856c11.44-0.176,18.127,4.576,21.823,11.44c3.696,7.039,4.752,15.663,4.752,22.879
		L166.07,48.671z"/>
	<path fill="#BCB7B3" d="M226.436,48.671c0-4.224-0.176-8.976-1.408-12.671c-1.232-3.521-3.168-5.984-6.16-5.984
		c-4.928,0.176-6.512,5.28-6.512,12.848c0,4.4,1.936,8.976,4.752,13.903s6.512,10.032,10.208,15.488
		c4.4,6.512,8.8,13.199,12.144,19.711s5.632,13.2,5.632,20.239c0,8.624-1.408,16.72-5.456,22.704
		c-4.048,5.983-10.56,9.855-20.943,9.855c-12.144,0-19.008-4.576-22.879-11.616c-3.872-7.039-4.752-16.367-4.752-26.047l18.655-1.76
		c0,5.456,0.176,10.911,1.584,14.959c1.232,4.225,3.344,7.04,7.392,7.04c5.632,0,7.744-5.983,7.744-14.256
		c0-4.224-2.112-9.151-4.928-14.255c-1.584-2.464-3.168-5.104-4.928-7.744c-3.696-5.28-7.744-11.264-11.967-17.775
		c-4.224-6.512-7.392-13.199-9.328-20.063c-1.056-3.344-1.584-6.864-1.584-10.384c0-7.04,1.584-14.607,5.632-20.415
		c4.048-5.632,10.208-9.68,19.184-9.856c11.44-0.176,18.127,4.576,21.823,11.44c3.696,7.039,4.752,15.663,4.752,22.879
		L226.436,48.671z"/>
	<path fill="#BCB7B3" d="M331.855,99.006v17.775c-0.176,5.28-1.231,10.031-3.168,14.079c-1.584,3.521-4.048,6.864-7.567,9.504
		c-3.521,2.816-8.272,4.4-14.608,4.4c-6.335,0-11.263-1.584-14.783-4.4c-3.52-2.64-5.808-5.983-7.392-9.504
		c-1.936-4.048-2.992-8.799-3.168-14.079V40.576c0.176-5.104,1.232-9.855,3.168-13.903c1.584-3.52,3.872-7.04,7.392-9.68
		c3.52-2.64,8.448-4.4,14.783-4.4c6.336,0,11.088,1.761,14.608,4.4c3.52,2.64,5.983,6.16,7.567,9.68
		c1.937,4.048,2.992,8.8,3.168,13.903v17.775H314.08V40.576c0-3.52-0.88-5.983-2.816-8.096c-0.879-0.88-2.463-1.408-4.399-1.408
		c-3.344,0-4.928,2.465-5.808,4.752c-0.527,1.408-0.704,2.992-0.88,4.752v76.206c0.176,3.696,1.231,6.16,2.991,8.096
		c0.881,0.88,2.112,1.408,3.696,1.408c4.048,0,5.632-2.112,6.512-4.752c0.528-1.232,0.704-2.816,0.704-4.752V99.006H331.855z"/>
	<path fill="#BCB7B3" d="M392.75,116.782c-0.176,5.28-1.231,10.031-3.168,14.079c-1.584,3.521-4.048,6.864-7.567,9.504
		c-3.521,2.816-8.271,4.4-14.607,4.4s-11.264-1.584-14.784-4.4c-3.52-2.64-5.808-5.983-7.392-9.504
		c-1.936-4.048-2.992-8.799-3.168-14.079V40.576c0.176-5.104,1.232-9.855,3.168-13.903c1.584-3.52,3.872-7.04,7.392-9.68
		c3.521-2.64,8.448-4.4,14.784-4.4s11.087,1.761,14.607,4.4c3.52,2.64,5.983,6.16,7.567,9.68c1.937,4.048,2.992,8.8,3.168,13.903
		V116.782z M373.743,40.576c0-3.52-0.704-5.983-2.464-8.096c-0.881-0.88-2.288-1.408-3.872-1.408c-3.344,0-4.928,2.465-5.632,4.752
		c-0.528,1.408-0.704,2.992-0.704,4.752v76.206c0,3.696,0.88,6.16,2.64,8.096c0.88,0.88,2.112,1.408,3.696,1.408
		c3.344,0,4.928-2.112,5.632-4.752c0.527-1.232,0.704-2.816,0.704-4.752V40.576z"/>
	<path fill="#BCB7B3" d="M405.598,14h19.007v111.757h25.168v17.6h-44.175V14z"/>
	<path fill="#BCB7B3" d="M506.972,116.782c-0.176,5.28-1.231,10.031-3.168,14.079c-1.584,3.521-4.048,6.864-7.567,9.504
		c-3.52,2.816-8.271,4.4-14.607,4.4s-11.264-1.584-14.784-4.4c-3.52-2.64-5.808-5.983-7.392-9.504
		c-1.936-4.048-2.992-8.799-3.168-14.079V40.576c0.176-5.104,1.232-9.855,3.168-13.903c1.584-3.52,3.872-7.04,7.392-9.68
		c3.521-2.64,8.448-4.4,14.784-4.4s11.088,1.761,14.607,4.4s5.983,6.16,7.567,9.68c1.937,4.048,2.992,8.8,3.168,13.903V116.782z
		 M487.965,40.576c0-3.52-0.704-5.983-2.464-8.096c-0.881-0.88-2.288-1.408-3.872-1.408c-3.344,0-4.928,2.465-5.632,4.752
		c-0.528,1.408-0.704,2.992-0.704,4.752v76.206c0,3.696,0.88,6.16,2.64,8.096c0.88,0.88,2.112,1.408,3.696,1.408
		c3.344,0,4.928-2.112,5.632-4.752c0.527-1.232,0.704-2.816,0.704-4.752V40.576z"/>
	<path fill="#BCB7B3" d="M553.786,143.357l-9.855-54.559h-5.104v54.559h-19.007V14h19.007c22.704,0,32.384,12.848,32.384,37.312
		c0,12.848-3.345,24.463-10.56,29.391l12.144,62.654H553.786z M538.826,71.199c2.641,0,6.16-0.352,8.977-2.815
		c2.815-2.464,5.104-7.216,5.104-16.368c0-9.151-2.288-14.079-5.104-16.543c-2.816-2.464-6.336-2.64-8.977-2.64V71.199z"/>
</g>
<g enable-background="new    ">
	<path fill="#BCB7B3" d="M74.55,257.006v17.775c-0.176,5.28-1.232,10.031-3.167,14.079c-1.584,3.521-4.048,6.864-7.568,9.504
		c-3.52,2.816-8.272,4.4-14.608,4.4c-6.335,0-11.264-1.584-14.783-4.4c-3.52-2.64-5.808-5.983-7.392-9.504
		c-1.936-4.048-2.992-8.799-3.168-14.079v-76.206c0.176-5.104,1.232-9.855,3.168-13.903c1.584-3.52,3.872-7.04,7.392-9.68
		c3.52-2.64,8.448-4.4,14.783-4.4c6.336,0,11.088,1.761,14.608,4.4c3.52,2.64,5.984,6.16,7.568,9.68
		c1.936,4.048,2.992,8.8,3.167,13.903v17.775H56.774v-17.775c0-3.52-0.88-5.983-2.816-8.096c-0.88-0.88-2.464-1.408-4.4-1.408
		c-3.344,0-4.928,2.465-5.808,4.752c-0.528,1.408-0.704,2.992-0.88,4.752v76.206c0.176,3.696,1.232,6.16,2.992,8.096
		c0.88,0.88,2.112,1.408,3.696,1.408c4.048,0,5.632-2.112,6.512-4.752c0.528-1.232,0.704-2.816,0.704-4.752v-17.775H74.55z"/>
	<path fill="#BCB7B3" d="M135.444,274.782c-0.176,5.28-1.232,10.031-3.167,14.079c-1.584,3.521-4.048,6.864-7.568,9.504
		c-3.52,2.816-8.272,4.4-14.608,4.4c-6.335,0-11.264-1.584-14.783-4.4c-3.52-2.64-5.808-5.983-7.392-9.504
		c-1.936-4.048-2.992-8.799-3.168-14.079v-76.206c0.176-5.104,1.232-9.855,3.168-13.903c1.584-3.52,3.872-7.04,7.392-9.68
		c3.52-2.64,8.448-4.4,14.783-4.4c6.336,0,11.088,1.761,14.608,4.4c3.52,2.64,5.984,6.16,7.568,9.68
		c1.936,4.048,2.992,8.8,3.167,13.903V274.782z M116.437,198.576c0-3.52-0.704-5.983-2.464-8.096
		c-0.88-0.88-2.288-1.408-3.872-1.408c-3.344,0-4.928,2.465-5.632,4.752c-0.528,1.408-0.704,2.992-0.704,4.752v76.206
		c0,3.696,0.88,6.16,2.64,8.096c0.88,0.88,2.112,1.408,3.696,1.408c3.344,0,4.928-2.112,5.632-4.752
		c0.528-1.232,0.704-2.816,0.704-4.752V198.576z"/>
	<path fill="#BCB7B3" d="M168.355,233.951l-1.584-5.983h-1.056v73.39h-17.424V172h16.896l18.479,67.406l1.584,5.983h1.056V172
		h17.423v129.356h-16.896L168.355,233.951z"/>
	<path fill="#BCB7B3" d="M252.305,172h18.479l-19.711,129.356h-19.007L212.354,172h18.479l9.504,71.103l0.704,5.455h1.056
		l0.704-5.455L252.305,172z"/>
	<path fill="#BCB7B3" d="M279.409,172h43.471v19.536h-24.463v33.967h17.599v20.768h-17.599v35.551h24.463v19.535h-43.471V172z"/>
	<path fill="#BCB7B3" d="M367.406,301.357l-9.855-54.559h-5.104v54.559h-19.007V172h19.007c22.704,0,32.384,12.848,32.384,37.312
		c0,12.848-3.345,24.463-10.56,29.391l12.144,62.654H367.406z M352.446,229.199c2.641,0,6.16-0.352,8.977-2.815
		c2.815-2.464,5.104-7.216,5.104-16.368c0-9.151-2.288-14.079-5.104-16.543c-2.816-2.464-6.336-2.64-8.977-2.64V229.199z"/>
	<path fill="#BCB7B3" d="M390.286,191.537V172h54.911v19.536h-17.952v109.82h-19.007v-109.82H390.286z"/>
	<path fill="#BCB7B3" d="M452.589,172h43.471v19.536h-24.464v33.967h17.6v20.768h-17.6v35.551h24.464v19.535h-43.471V172z"/>
	<path fill="#BCB7B3" d="M540.586,301.357l-9.855-54.559h-5.104v54.559h-19.007V172h19.007c22.704,0,32.384,12.848,32.384,37.312
		c0,12.848-3.345,24.463-10.56,29.391l12.144,62.654H540.586z M525.626,229.199c2.641,0,6.16-0.352,8.977-2.815
		c2.815-2.464,5.104-7.216,5.104-16.368c0-9.151-2.288-14.079-5.104-16.543c-2.816-2.464-6.336-2.64-8.977-2.64V229.199z"/>
</g>
</svg>
