<?xml version="1.0" encoding="utf-8"?>
<!-- Generator: Adobe Illustrator 16.0.0, SVG Export Plug-In . SVG Version: 6.00 Build 0)  -->
<!DOCTYPE svg PUBLIC "-//W3C//DTD SVG 1.1//EN" "http://www.w3.org/Graphics/SVG/1.1/DTD/svg11.dtd">
<svg version="1.1" id="Layer_1" xmlns="http://www.w3.org/2000/svg" xmlns:xlink="http://www.w3.org/1999/xlink" x="0px" y="0px"
	 width="1178.004px" height="156px" viewBox="0 0 1178.004 156" enable-background="new 0 0 1178.004 156" xml:space="preserve">
<rect x="-6.998" y="8.083" fill="none" width="1185.002" height="147.917"/>
<g enable-background="new    ">
	<path fill="#FFFFFF" d="M50.478,42.755c0-4.224-0.176-8.976-1.408-12.671c-1.232-3.521-3.168-5.984-6.16-5.984
		c-4.928,0.176-6.512,5.28-6.512,12.848c0,4.4,1.936,8.976,4.752,13.903s6.512,10.032,10.208,15.488
		c4.4,6.512,8.8,13.199,12.144,19.711s5.632,13.2,5.632,20.239c0,8.624-1.408,16.72-5.456,22.704
		c-4.048,5.983-10.56,9.855-20.943,9.855c-12.144,0-19.008-4.576-22.879-11.616c-3.872-7.039-4.752-16.367-4.752-26.047l18.655-1.76
		c0,5.456,0.176,10.911,1.584,14.959c1.232,4.225,3.344,7.04,7.392,7.04c5.632,0,7.744-5.983,7.744-14.256
		c0-4.224-2.112-9.151-4.928-14.255c-1.584-2.464-3.168-5.104-4.928-7.744c-3.696-5.28-7.744-11.264-11.967-17.775
		c-4.224-6.512-7.392-13.199-9.328-20.063c-1.056-3.344-1.584-6.864-1.584-10.384c0-7.04,1.584-14.607,5.632-20.415
		c4.048-5.632,10.208-9.68,19.184-9.856c11.44-0.176,18.127,4.576,21.823,11.44c3.696,7.039,4.752,15.663,4.752,22.879
		L50.478,42.755z"/>
	<path fill="#FFFFFF" d="M74.06,137.441L93.596,8.084h23.231l19.535,129.356h-18.479l-3.52-26.399H96.06l-3.52,26.399H74.06z
		 M106.267,50.148l-0.528-3.345h-1.056l-0.528,3.345L98.7,90.978h13.023L106.267,50.148z"/>
	<path fill="#FFFFFF" d="M174.907,42.755c0-4.224-0.176-8.976-1.408-12.671c-1.232-3.521-3.168-5.984-6.16-5.984
		c-4.928,0.176-6.512,5.28-6.512,12.848c0,4.4,1.936,8.976,4.752,13.903s6.512,10.032,10.208,15.488
		c4.4,6.512,8.8,13.199,12.144,19.711s5.632,13.2,5.632,20.239c0,8.624-1.408,16.72-5.456,22.704
		c-4.048,5.983-10.56,9.855-20.943,9.855c-12.144,0-19.008-4.576-22.879-11.616c-3.872-7.039-4.752-16.367-4.752-26.047l18.655-1.76
		c0,5.456,0.176,10.911,1.584,14.959c1.232,4.225,3.344,7.04,7.392,7.04c5.632,0,7.744-5.983,7.744-14.256
		c0-4.224-2.112-9.151-4.928-14.255c-1.584-2.464-3.168-5.104-4.928-7.744c-3.696-5.28-7.744-11.264-11.967-17.775
		c-4.224-6.512-7.392-13.199-9.328-20.063c-1.056-3.344-1.584-6.864-1.584-10.384c0-7.04,1.584-14.607,5.632-20.415
		c4.048-5.632,10.208-9.68,19.184-9.856c11.44-0.176,18.127,4.576,21.823,11.44c3.696,7.039,4.752,15.663,4.752,22.879
		L174.907,42.755z"/>
	<path fill="#FFFFFF" d="M235.272,42.755c0-4.224-0.176-8.976-1.408-12.671c-1.232-3.521-3.168-5.984-6.16-5.984
		c-4.928,0.176-6.512,5.28-6.512,12.848c0,4.4,1.936,8.976,4.752,13.903s6.512,10.032,10.208,15.488
		c4.4,6.512,8.8,13.199,12.144,19.711s5.632,13.2,5.632,20.239c0,8.624-1.408,16.72-5.456,22.704
		c-4.048,5.983-10.56,9.855-20.943,9.855c-12.144,0-19.008-4.576-22.879-11.616c-3.872-7.039-4.752-16.367-4.752-26.047l18.655-1.76
		c0,5.456,0.176,10.911,1.584,14.959c1.232,4.225,3.344,7.04,7.392,7.04c5.632,0,7.744-5.983,7.744-14.256
		c0-4.224-2.112-9.151-4.928-14.255c-1.584-2.464-3.168-5.104-4.928-7.744c-3.696-5.28-7.744-11.264-11.967-17.775
		c-4.224-6.512-7.392-13.199-9.328-20.063c-1.056-3.344-1.584-6.864-1.584-10.384c0-7.04,1.584-14.607,5.632-20.415
		c4.048-5.632,10.208-9.68,19.184-9.856c11.44-0.176,18.127,4.576,21.823,11.44c3.696,7.039,4.752,15.663,4.752,22.879
		L235.272,42.755z"/>
	<path fill="#FFFFFF" d="M340.692,93.09v17.775c-0.176,5.28-1.231,10.031-3.168,14.079c-1.584,3.521-4.048,6.864-7.567,9.504
		c-3.52,2.816-8.272,4.4-14.608,4.4c-6.335,0-11.264-1.584-14.783-4.4c-3.52-2.64-5.808-5.983-7.392-9.504
		c-1.936-4.048-2.992-8.799-3.168-14.079V34.66c0.176-5.104,1.232-9.855,3.168-13.903c1.584-3.52,3.872-7.04,7.392-9.68
		c3.52-2.64,8.448-4.4,14.783-4.4c6.336,0,11.088,1.761,14.608,4.4c3.52,2.64,5.983,6.16,7.567,9.68
		c1.937,4.048,2.992,8.8,3.168,13.903v17.775h-17.775V34.66c0-3.52-0.88-5.983-2.816-8.096c-0.88-0.88-2.464-1.408-4.4-1.408
		c-3.344,0-4.928,2.465-5.808,4.752c-0.528,1.408-0.704,2.992-0.88,4.752v76.206c0.176,3.696,1.232,6.16,2.992,8.096
		c0.88,0.88,2.112,1.408,3.696,1.408c4.048,0,5.632-2.112,6.512-4.752c0.528-1.232,0.704-2.816,0.704-4.752V93.09H340.692z"/>
	<path fill="#FFFFFF" d="M401.587,110.866c-0.176,5.28-1.231,10.031-3.168,14.079c-1.584,3.521-4.048,6.864-7.567,9.504
		c-3.521,2.816-8.271,4.4-14.607,4.4s-11.264-1.584-14.784-4.4c-3.52-2.64-5.808-5.983-7.392-9.504
		c-1.936-4.048-2.992-8.799-3.168-14.079V34.66c0.176-5.104,1.232-9.855,3.168-13.903c1.584-3.52,3.872-7.04,7.392-9.68
		c3.521-2.64,8.448-4.4,14.784-4.4s11.087,1.761,14.607,4.4c3.52,2.64,5.983,6.16,7.567,9.68c1.937,4.048,2.992,8.8,3.168,13.903
		V110.866z M382.58,34.66c0-3.52-0.704-5.983-2.464-8.096c-0.881-0.88-2.288-1.408-3.872-1.408c-3.344,0-4.928,2.465-5.632,4.752
		c-0.528,1.408-0.704,2.992-0.704,4.752v76.206c0,3.696,0.88,6.16,2.64,8.096c0.88,0.88,2.112,1.408,3.696,1.408
		c3.344,0,4.928-2.112,5.632-4.752c0.527-1.232,0.704-2.816,0.704-4.752V34.66z"/>
	<path fill="#FFFFFF" d="M414.435,8.084h19.007v111.757h25.168v17.6h-44.175V8.084z"/>
	<path fill="#FFFFFF" d="M515.809,110.866c-0.176,5.28-1.231,10.031-3.168,14.079c-1.584,3.521-4.048,6.864-7.567,9.504
		c-3.52,2.816-8.271,4.4-14.607,4.4s-11.264-1.584-14.784-4.4c-3.52-2.64-5.808-5.983-7.392-9.504
		c-1.936-4.048-2.992-8.799-3.168-14.079V34.66c0.176-5.104,1.232-9.855,3.168-13.903c1.584-3.52,3.872-7.04,7.392-9.68
		c3.521-2.64,8.448-4.4,14.784-4.4s11.088,1.761,14.607,4.4s5.983,6.16,7.567,9.68c1.937,4.048,2.992,8.8,3.168,13.903V110.866z
		 M496.802,34.66c0-3.52-0.704-5.983-2.464-8.096c-0.881-0.88-2.288-1.408-3.872-1.408c-3.344,0-4.928,2.465-5.632,4.752
		c-0.528,1.408-0.704,2.992-0.704,4.752v76.206c0,3.696,0.88,6.16,2.64,8.096c0.88,0.88,2.112,1.408,3.696,1.408
		c3.344,0,4.928-2.112,5.632-4.752c0.527-1.232,0.704-2.816,0.704-4.752V34.66z"/>
	<path fill="#FFFFFF" d="M562.623,137.441l-9.855-54.559h-5.104v54.559h-19.007V8.084h19.007c22.704,0,32.384,12.848,32.384,37.312
		c0,12.848-3.345,24.463-10.56,29.391l12.144,62.654H562.623z M547.663,65.283c2.641,0,6.16-0.352,8.977-2.815
		c2.815-2.464,5.104-7.216,5.104-16.368c0-9.151-2.288-14.079-5.104-16.543c-2.816-2.464-6.336-2.64-8.977-2.64V65.283z"/>
	<path fill="#FFFFFF" d="M668.748,93.09v17.775c-0.176,5.28-1.231,10.031-3.168,14.079c-1.584,3.521-4.048,6.864-7.567,9.504
		c-3.52,2.816-8.271,4.4-14.607,4.4s-11.264-1.584-14.784-4.4c-3.52-2.64-5.808-5.983-7.392-9.504
		c-1.936-4.048-2.992-8.799-3.168-14.079V34.66c0.176-5.104,1.232-9.855,3.168-13.903c1.584-3.52,3.872-7.04,7.392-9.68
		c3.521-2.64,8.448-4.4,14.784-4.4s11.088,1.761,14.607,4.4s5.983,6.16,7.567,9.68c1.937,4.048,2.992,8.8,3.168,13.903v17.775
		h-17.775V34.66c0-3.52-0.88-5.983-2.815-8.096c-0.88-0.88-2.464-1.408-4.4-1.408c-3.344,0-4.928,2.465-5.808,4.752
		c-0.528,1.408-0.704,2.992-0.88,4.752v76.206c0.176,3.696,1.231,6.16,2.992,8.096c0.88,0.88,2.111,1.408,3.695,1.408
		c4.048,0,5.632-2.112,6.512-4.752c0.528-1.232,0.704-2.816,0.704-4.752V93.09H668.748z"/>
	<path fill="#FFFFFF" d="M729.643,110.866c-0.176,5.28-1.231,10.031-3.168,14.079c-1.584,3.521-4.048,6.864-7.567,9.504
		c-3.52,2.816-8.271,4.4-14.607,4.4s-11.264-1.584-14.784-4.4c-3.52-2.64-5.808-5.983-7.392-9.504
		c-1.936-4.048-2.992-8.799-3.168-14.079V34.66c0.176-5.104,1.232-9.855,3.168-13.903c1.584-3.52,3.872-7.04,7.392-9.68
		c3.521-2.64,8.448-4.4,14.784-4.4s11.088,1.761,14.607,4.4s5.983,6.16,7.567,9.68c1.937,4.048,2.992,8.8,3.168,13.903V110.866z
		 M710.636,34.66c0-3.52-0.704-5.983-2.464-8.096c-0.881-0.88-2.288-1.408-3.872-1.408c-3.344,0-4.928,2.465-5.632,4.752
		c-0.528,1.408-0.704,2.992-0.704,4.752v76.206c0,3.696,0.88,6.16,2.64,8.096c0.88,0.88,2.112,1.408,3.696,1.408
		c3.344,0,4.928-2.112,5.632-4.752c0.527-1.232,0.704-2.816,0.704-4.752V34.66z"/>
	<path fill="#FFFFFF" d="M762.554,70.035l-1.584-5.983h-1.057v73.39H742.49V8.084h16.896l18.479,67.406l1.584,5.983h1.056V8.084
		h17.424v129.356h-16.896L762.554,70.035z"/>
	<path fill="#FFFFFF" d="M846.504,8.084h18.479l-19.712,129.356h-19.008L806.553,8.084h18.479l9.504,71.103l0.704,5.455h1.056
		L837,79.187L846.504,8.084z"/>
	<path fill="#FFFFFF" d="M873.607,8.084h43.471v19.536h-24.464v33.967h17.6v20.768h-17.6v35.551h24.464v19.535h-43.471V8.084z"/>
	<path fill="#FFFFFF" d="M961.604,137.441l-9.855-54.559h-5.104v54.559h-19.007V8.084h19.007c22.704,0,32.384,12.848,32.384,37.312
		c0,12.848-3.345,24.463-10.561,29.391l12.145,62.654H961.604z M946.645,65.283c2.641,0,6.16-0.352,8.977-2.815
		c2.815-2.464,5.104-7.216,5.104-16.368c0-9.151-2.288-14.079-5.104-16.543c-2.816-2.464-6.336-2.64-8.977-2.64V65.283z"/>
	<path fill="#FFFFFF" d="M984.483,27.621V8.084h54.911v19.536h-17.952v109.82h-19.007V27.621H984.483z"/>
	<path fill="#FFFFFF" d="M1046.787,8.084h43.471v19.536h-24.464v33.967h17.6v20.768h-17.6v35.551h24.464v19.535h-43.471V8.084z"/>
	<path fill="#FFFFFF" d="M1134.784,137.441l-9.855-54.559h-5.104v54.559h-19.007V8.084h19.007c22.704,0,32.384,12.848,32.384,37.312
		c0,12.848-3.345,24.463-10.561,29.391l12.145,62.654H1134.784z M1119.824,65.283c2.641,0,6.16-0.352,8.977-2.815
		c2.815-2.464,5.104-7.216,5.104-16.368c0-9.151-2.288-14.079-5.104-16.543c-2.816-2.464-6.336-2.64-8.977-2.64V65.283z"/>
</g>
<rect x="-10.998" y="7.333" fill="none" width="1185.002" height="147.917"/>
<g enable-background="new    ">
	<path fill="#BCB7B3" d="M46.478,42.004c0-4.224-0.176-8.976-1.408-12.671c-1.232-3.521-3.168-5.984-6.16-5.984
		c-4.928,0.176-6.512,5.28-6.512,12.848c0,4.4,1.936,8.976,4.752,13.903s6.512,10.032,10.208,15.488
		c4.4,6.512,8.8,13.199,12.144,19.711s5.632,13.2,5.632,20.239c0,8.624-1.408,16.72-5.456,22.704
		c-4.048,5.983-10.56,9.855-20.943,9.855c-12.144,0-19.008-4.576-22.879-11.616c-3.872-7.039-4.752-16.367-4.752-26.047l18.655-1.76
		c0,5.456,0.176,10.911,1.584,14.959c1.232,4.225,3.344,7.04,7.392,7.04c5.632,0,7.744-5.983,7.744-14.256
		c0-4.224-2.112-9.151-4.928-14.255c-1.584-2.464-3.168-5.104-4.928-7.744c-3.696-5.28-7.744-11.264-11.967-17.775
		c-4.224-6.512-7.392-13.199-9.328-20.063c-1.056-3.344-1.584-6.864-1.584-10.384c0-7.04,1.584-14.607,5.632-20.415
		c4.048-5.632,10.208-9.68,19.184-9.856c11.44-0.176,18.127,4.576,21.823,11.44c3.696,7.039,4.752,15.663,4.752,22.879
		L46.478,42.004z"/>
	<path fill="#BCB7B3" d="M70.06,136.69L89.596,7.333h23.231l19.535,129.356h-18.479l-3.52-26.399H92.06l-3.52,26.399H70.06z
		 M102.267,49.397l-0.528-3.345h-1.056l-0.528,3.345L94.7,90.227h13.023L102.267,49.397z"/>
	<path fill="#BCB7B3" d="M170.907,42.004c0-4.224-0.176-8.976-1.408-12.671c-1.232-3.521-3.168-5.984-6.16-5.984
		c-4.928,0.176-6.512,5.28-6.512,12.848c0,4.4,1.936,8.976,4.752,13.903s6.512,10.032,10.208,15.488
		c4.4,6.512,8.8,13.199,12.144,19.711s5.632,13.2,5.632,20.239c0,8.624-1.408,16.72-5.456,22.704
		c-4.048,5.983-10.56,9.855-20.943,9.855c-12.144,0-19.008-4.576-22.879-11.616c-3.872-7.039-4.752-16.367-4.752-26.047l18.655-1.76
		c0,5.456,0.176,10.911,1.584,14.959c1.232,4.225,3.344,7.04,7.392,7.04c5.632,0,7.744-5.983,7.744-14.256
		c0-4.224-2.112-9.151-4.928-14.255c-1.584-2.464-3.168-5.104-4.928-7.744c-3.696-5.28-7.744-11.264-11.967-17.775
		c-4.224-6.512-7.392-13.199-9.328-20.063c-1.056-3.344-1.584-6.864-1.584-10.384c0-7.04,1.584-14.607,5.632-20.415
		c4.048-5.632,10.208-9.68,19.184-9.856c11.44-0.176,18.127,4.576,21.823,11.44c3.696,7.039,4.752,15.663,4.752,22.879
		L170.907,42.004z"/>
	<path fill="#BCB7B3" d="M231.272,42.004c0-4.224-0.176-8.976-1.408-12.671c-1.232-3.521-3.168-5.984-6.16-5.984
		c-4.928,0.176-6.512,5.28-6.512,12.848c0,4.4,1.936,8.976,4.752,13.903s6.512,10.032,10.208,15.488
		c4.4,6.512,8.8,13.199,12.144,19.711s5.632,13.2,5.632,20.239c0,8.624-1.408,16.72-5.456,22.704
		c-4.048,5.983-10.56,9.855-20.943,9.855c-12.144,0-19.008-4.576-22.879-11.616c-3.872-7.039-4.752-16.367-4.752-26.047l18.655-1.76
		c0,5.456,0.176,10.911,1.584,14.959c1.232,4.225,3.344,7.04,7.392,7.04c5.632,0,7.744-5.983,7.744-14.256
		c0-4.224-2.112-9.151-4.928-14.255c-1.584-2.464-3.168-5.104-4.928-7.744c-3.696-5.28-7.744-11.264-11.967-17.775
		c-4.224-6.512-7.392-13.199-9.328-20.063c-1.056-3.344-1.584-6.864-1.584-10.384c0-7.04,1.584-14.607,5.632-20.415
		c4.048-5.632,10.208-9.68,19.184-9.856c11.44-0.176,18.127,4.576,21.823,11.44c3.696,7.039,4.752,15.663,4.752,22.879
		L231.272,42.004z"/>
	<path fill="#BCB7B3" d="M336.692,92.339v17.775c-0.176,5.28-1.231,10.031-3.168,14.079c-1.584,3.521-4.048,6.864-7.567,9.504
		c-3.52,2.816-8.272,4.4-14.608,4.4c-6.335,0-11.264-1.584-14.783-4.4c-3.52-2.64-5.808-5.983-7.392-9.504
		c-1.936-4.048-2.992-8.799-3.168-14.079V33.909c0.176-5.104,1.232-9.855,3.168-13.903c1.584-3.52,3.872-7.04,7.392-9.68
		c3.52-2.64,8.448-4.4,14.783-4.4c6.336,0,11.088,1.761,14.608,4.4c3.52,2.64,5.983,6.16,7.567,9.68
		c1.937,4.048,2.992,8.8,3.168,13.903v17.775h-17.775V33.909c0-3.52-0.88-5.983-2.816-8.096c-0.88-0.88-2.464-1.408-4.4-1.408
		c-3.344,0-4.928,2.465-5.808,4.752c-0.528,1.408-0.704,2.992-0.88,4.752v76.206c0.176,3.696,1.232,6.16,2.992,8.096
		c0.88,0.88,2.112,1.408,3.696,1.408c4.048,0,5.632-2.112,6.512-4.752c0.528-1.232,0.704-2.816,0.704-4.752V92.339H336.692z"/>
	<path fill="#BCB7B3" d="M397.587,110.115c-0.176,5.28-1.231,10.031-3.168,14.079c-1.584,3.521-4.048,6.864-7.567,9.504
		c-3.521,2.816-8.271,4.4-14.607,4.4s-11.264-1.584-14.784-4.4c-3.52-2.64-5.808-5.983-7.392-9.504
		c-1.936-4.048-2.992-8.799-3.168-14.079V33.909c0.176-5.104,1.232-9.855,3.168-13.903c1.584-3.52,3.872-7.04,7.392-9.68
		c3.521-2.64,8.448-4.4,14.784-4.4s11.087,1.761,14.607,4.4c3.52,2.64,5.983,6.16,7.567,9.68c1.937,4.048,2.992,8.8,3.168,13.903
		V110.115z M378.58,33.909c0-3.52-0.704-5.983-2.464-8.096c-0.881-0.88-2.288-1.408-3.872-1.408c-3.344,0-4.928,2.465-5.632,4.752
		c-0.528,1.408-0.704,2.992-0.704,4.752v76.206c0,3.696,0.88,6.16,2.64,8.096c0.88,0.88,2.112,1.408,3.696,1.408
		c3.344,0,4.928-2.112,5.632-4.752c0.527-1.232,0.704-2.816,0.704-4.752V33.909z"/>
	<path fill="#BCB7B3" d="M410.435,7.333h19.007V119.09h25.168v17.6h-44.175V7.333z"/>
	<path fill="#BCB7B3" d="M511.809,110.115c-0.176,5.28-1.231,10.031-3.168,14.079c-1.584,3.521-4.048,6.864-7.567,9.504
		c-3.52,2.816-8.271,4.4-14.607,4.4s-11.264-1.584-14.784-4.4c-3.52-2.64-5.808-5.983-7.392-9.504
		c-1.936-4.048-2.992-8.799-3.168-14.079V33.909c0.176-5.104,1.232-9.855,3.168-13.903c1.584-3.52,3.872-7.04,7.392-9.68
		c3.521-2.64,8.448-4.4,14.784-4.4s11.088,1.761,14.607,4.4s5.983,6.16,7.567,9.68c1.937,4.048,2.992,8.8,3.168,13.903V110.115z
		 M492.802,33.909c0-3.52-0.704-5.983-2.464-8.096c-0.881-0.88-2.288-1.408-3.872-1.408c-3.344,0-4.928,2.465-5.632,4.752
		c-0.528,1.408-0.704,2.992-0.704,4.752v76.206c0,3.696,0.88,6.16,2.64,8.096c0.88,0.88,2.112,1.408,3.696,1.408
		c3.344,0,4.928-2.112,5.632-4.752c0.527-1.232,0.704-2.816,0.704-4.752V33.909z"/>
	<path fill="#BCB7B3" d="M558.623,136.69l-9.855-54.559h-5.104v54.559h-19.007V7.333h19.007c22.704,0,32.384,12.848,32.384,37.312
		c0,12.848-3.345,24.463-10.56,29.391l12.144,62.654H558.623z M543.663,64.532c2.641,0,6.16-0.352,8.977-2.815
		c2.815-2.464,5.104-7.216,5.104-16.368c0-9.151-2.288-14.079-5.104-16.543c-2.816-2.464-6.336-2.64-8.977-2.64V64.532z"/>
	<path fill="#BCB7B3" d="M664.748,92.339v17.775c-0.176,5.28-1.231,10.031-3.168,14.079c-1.584,3.521-4.048,6.864-7.567,9.504
		c-3.52,2.816-8.271,4.4-14.607,4.4s-11.264-1.584-14.784-4.4c-3.52-2.64-5.808-5.983-7.392-9.504
		c-1.936-4.048-2.992-8.799-3.168-14.079V33.909c0.176-5.104,1.232-9.855,3.168-13.903c1.584-3.52,3.872-7.04,7.392-9.68
		c3.521-2.64,8.448-4.4,14.784-4.4s11.088,1.761,14.607,4.4s5.983,6.16,7.567,9.68c1.937,4.048,2.992,8.8,3.168,13.903v17.775
		h-17.775V33.909c0-3.52-0.88-5.983-2.815-8.096c-0.88-0.88-2.464-1.408-4.4-1.408c-3.344,0-4.928,2.465-5.808,4.752
		c-0.528,1.408-0.704,2.992-0.88,4.752v76.206c0.176,3.696,1.231,6.16,2.992,8.096c0.88,0.88,2.111,1.408,3.695,1.408
		c4.048,0,5.632-2.112,6.512-4.752c0.528-1.232,0.704-2.816,0.704-4.752V92.339H664.748z"/>
	<path fill="#BCB7B3" d="M725.643,110.115c-0.176,5.28-1.231,10.031-3.168,14.079c-1.584,3.521-4.048,6.864-7.567,9.504
		c-3.52,2.816-8.271,4.4-14.607,4.4s-11.264-1.584-14.784-4.4c-3.52-2.64-5.808-5.983-7.392-9.504
		c-1.936-4.048-2.992-8.799-3.168-14.079V33.909c0.176-5.104,1.232-9.855,3.168-13.903c1.584-3.52,3.872-7.04,7.392-9.68
		c3.521-2.64,8.448-4.4,14.784-4.4s11.088,1.761,14.607,4.4s5.983,6.16,7.567,9.68c1.937,4.048,2.992,8.8,3.168,13.903V110.115z
		 M706.636,33.909c0-3.52-0.704-5.983-2.464-8.096c-0.881-0.88-2.288-1.408-3.872-1.408c-3.344,0-4.928,2.465-5.632,4.752
		c-0.528,1.408-0.704,2.992-0.704,4.752v76.206c0,3.696,0.88,6.16,2.64,8.096c0.88,0.88,2.112,1.408,3.696,1.408
		c3.344,0,4.928-2.112,5.632-4.752c0.527-1.232,0.704-2.816,0.704-4.752V33.909z"/>
	<path fill="#BCB7B3" d="M758.554,69.284L756.97,63.3h-1.057v73.39H738.49V7.333h16.896l18.479,67.406l1.584,5.983h1.056V7.333
		h17.424V136.69h-16.896L758.554,69.284z"/>
	<path fill="#BCB7B3" d="M842.504,7.333h18.479L841.271,136.69h-19.008L802.553,7.333h18.479l9.504,71.103l0.704,5.455h1.056
		L833,78.436L842.504,7.333z"/>
	<path fill="#BCB7B3" d="M869.607,7.333h43.471V26.87h-24.464v33.967h17.6v20.768h-17.6v35.551h24.464v19.535h-43.471V7.333z"/>
	<path fill="#BCB7B3" d="M957.604,136.69l-9.855-54.559h-5.104v54.559h-19.007V7.333h19.007c22.704,0,32.384,12.848,32.384,37.312
		c0,12.848-3.345,24.463-10.561,29.391l12.145,62.654H957.604z M942.645,64.532c2.641,0,6.16-0.352,8.977-2.815
		c2.815-2.464,5.104-7.216,5.104-16.368c0-9.151-2.288-14.079-5.104-16.543c-2.816-2.464-6.336-2.64-8.977-2.64V64.532z"/>
	<path fill="#BCB7B3" d="M980.483,26.87V7.333h54.911V26.87h-17.952v109.82h-19.007V26.87H980.483z"/>
	<path fill="#BCB7B3" d="M1042.787,7.333h43.471V26.87h-24.464v33.967h17.6v20.768h-17.6v35.551h24.464v19.535h-43.471V7.333z"/>
	<path fill="#BCB7B3" d="M1130.784,136.69l-9.855-54.559h-5.104v54.559h-19.007V7.333h19.007c22.704,0,32.384,12.848,32.384,37.312
		c0,12.848-3.345,24.463-10.561,29.391l12.145,62.654H1130.784z M1115.824,64.532c2.641,0,6.16-0.352,8.977-2.815
		c2.815-2.464,5.104-7.216,5.104-16.368c0-9.151-2.288-14.079-5.104-16.543c-2.816-2.464-6.336-2.64-8.977-2.64V64.532z"/>
</g>
</svg>
